# xmcd
#
# Track frame offsets: 
#        150
#        12015
#        25402
#        37752
#        61285
#        74845
#        87772
#        97687
#        120900
#        131147
#        146817
#        158055
#        174552
#        186390
#        199110
#        211382
#        228495
#        249810
#        271840
#        305340
#
# Disc length: 4254 seconds
#
# Revision: 3
# Processed by: cddbd v1.5.2PL0 Copyright (c) Steve Scherf et al.
# Submitted via: ExactAudioCopy v0.99pb5
#
DISCID=0c109c14
DTITLE=Johnny Copeland - Blues Power
DYEAR=1900
DGENRE=Blues
TTITLE0=Down On Bending Knees
TTITLE1=Just One More Time
TTITLE2=Heebie Jeebies
TTITLE3=Night Time Is The Right Time Part 1 and 2
TTITLE4=That's All Right Mama
TTITLE5=Let Me Cry
TTITLE6=Late Hours
TTITLE7=Rock Me Baby
TTITLE8=Wella, Wella Baby
TTITLE9=Ghetto Child
TTITLE10=Mama Told Me
TTITLE11=Ain't Nobody's Business
TTITLE12=Baby Please Don't Go
TTITLE13=All These Things
TTITLE14=Working Man's Blues (ACA Version)
TTITLE15=You Got Me Singing A Love Song (Live)
TTITLE16=Travelling Blues (Live)
TTITLE17=Drinking New York City Dry (Live)
TTITLE18=Texas Party (Live)
TTITLE19=Working Man's Blues
EXTD=
EXTT0=
EXTT1=
EXTT2=
EXTT3=
EXTT4=
EXTT5=
EXTT6=
EXTT7=
EXTT8=
EXTT9=
EXTT10=
EXTT11=
EXTT12=
EXTT13=
EXTT14=
EXTT15=
EXTT16=
EXTT17=
EXTT18=
EXTT19=
PLAYORDER=
